HIERARCHY
ROOT hip
{
  OFFSET 218.684 18.9513 4.52441
  CHANNELS 6 Xposition Yposition Zposition Zrotation Xrotation Yrotation
  JOINT abdomen
  {
    OFFSET 0 20.6881 -0.73152
    CHANNELS 3 Zrotation Xrotation Yrotation
    JOINT chest
    {
      OFFSET 0 11.7043 -0.48768
      CHANNELS 3 Zrotation Xrotation Yrotation
      JOINT neck
      {
        OFFSET 0 22.1894 -2.19456
        CHANNELS 3 Zrotation Xrotation Yrotation
        JOINT head
        {
          OFFSET -0.24384 7.07133 1.2192
          CHANNELS 3 Zrotation Xrotation Yrotation
          JOINT leftEye
          {
            OFFSET 4.14528 8.04674 8.04672
            CHANNELS 3 Zrotation Xrotation Yrotation
            End Site
            {
              OFFSET 1 0 0
            }
          }
          JOINT rightEye
          {
            OFFSET -3.6576 8.04674 8.04672
            CHANNELS 3 Zrotation Xrotation Yrotation
            End Site
            {
              OFFSET 1 0 0
            }
          }
        }
      }
      JOINT rCollar
      {
        OFFSET -2.68224 19.2634 -4.8768
        CHANNELS 3 Zrotation Xrotation Yrotation
        JOINT rShldr
        {
          OFFSET -8.77824 -1.95073 1.46304
          CHANNELS 3 Zrotation Xrotation Yrotation
          JOINT rForeArm
          {
            OFFSET -28.1742 -1.7115 0.48768
            CHANNELS 3 Zrotation Xrotation Yrotation
            JOINT rHand
            {
              OFFSET -22.5879 0.773209 7.07136
              CHANNELS 3 Zrotation Xrotation Yrotation
              JOINT rThumb1
              {
                OFFSET -1.2192 -0.487915 3.41376
                CHANNELS 3 Zrotation Xrotation Yrotation
                JOINT rThumb2
                {
                  OFFSET -3.37035 -0.52449 3.41376
                  CHANNELS 3 Zrotation Xrotation Yrotation
                  End Site
                  {
                    OFFSET -1.78271 -1.18214 1.43049
                  }
                }
              }
              JOINT rIndex1
              {
                OFFSET -7.75947 0.938293 5.60832
                CHANNELS 3 Zrotation Xrotation Yrotation
                JOINT rIndex2
                {
                  OFFSET -2.54057 -0.884171 1.56538
                  CHANNELS 3 Zrotation Xrotation Yrotation
                  End Site
                  {
                    OFFSET -1.62519 -0.234802 1.16502
                  }
                }
              }
              JOINT rMid1
              {
                OFFSET -8.24714 1.18213 3.41376
                CHANNELS 3 Zrotation Xrotation Yrotation
                JOINT rMid2
                {
                  OFFSET -3.10165 -0.590103 1.0647
                  CHANNELS 3 Zrotation Xrotation Yrotation
                  End Site
                  {
                    OFFSET -2.48547 -0.328903 0.83742
                  }
                }
              }
              JOINT rRing1
              {
                OFFSET -8.82822 0.546677 1.51678
                CHANNELS 3 Zrotation Xrotation Yrotation
                JOINT rRing2
                {
                  OFFSET -2.60934 -0.819778 -0.0198488
                  CHANNELS 3 Zrotation Xrotation Yrotation
                  End Site
                  {
                    OFFSET -2.33842 -0.294052 0.168128
                  }
                }
              }
              JOINT rPinky1
              {
                OFFSET -8.27202 -0.0477905 -0.4584
                CHANNELS 3 Zrotation Xrotation Yrotation
                JOINT rPinky2
                {
                  OFFSET -1.82734 -0.647385 -0.700984
                  CHANNELS 3 Zrotation Xrotation Yrotation
                  End Site
                  {
                    OFFSET -1.69225 -0.51767 -0.607171
                  }
                }
              }
            }
          }
        }
      }
      JOINT lCollar
      {
        OFFSET 2.68224 19.2634 -4.8768
        CHANNELS 3 Zrotation Xrotation Yrotation
        JOINT lShldr
        {
          OFFSET 8.77824 -1.95073 1.46304
          CHANNELS 3 Zrotation Xrotation Yrotation
          JOINT lForeArm
          {
            OFFSET 28.1742 -1.7115 0.48768
            CHANNELS 3 Zrotation Xrotation Yrotation
            JOINT lHand
            {
              OFFSET 22.5879 0.773209 7.07136
              CHANNELS 3 Zrotation Xrotation Yrotation
              JOINT lThumb1
              {
                OFFSET 1.2192 -0.487915 3.41376
                CHANNELS 3 Zrotation Xrotation Yrotation
                JOINT lThumb2
                {
                  OFFSET 3.37035 -0.52449 3.41376
                  CHANNELS 3 Zrotation Xrotation Yrotation
                  End Site
                  {
                    OFFSET 1.78271 -1.18214 1.43049
                  }
                }
              }
              JOINT lIndex1
              {
                OFFSET 7.75947 0.938293 5.60832
                CHANNELS 3 Zrotation Xrotation Yrotation
                JOINT lIndex2
                {
                  OFFSET 2.54057 -0.884171 1.56538
                  CHANNELS 3 Zrotation Xrotation Yrotation
                  End Site
                  {
                    OFFSET 1.62519 -0.234802 1.16502
                  }
                }
              }
              JOINT lMid1
              {
                OFFSET 8.24714 1.18213 3.41376
                CHANNELS 3 Zrotation Xrotation Yrotation
                JOINT lMid2
                {
                  OFFSET 3.10165 -0.590103 1.0647
                  CHANNELS 3 Zrotation Xrotation Yrotation
                  End Site
                  {
                    OFFSET 2.48547 -0.328903 0.83742
                  }
                }
              }
              JOINT lRing1
              {
                OFFSET 8.82822 0.546677 1.51678
                CHANNELS 3 Zrotation Xrotation Yrotation
                JOINT lRing2
                {
                  OFFSET 2.60934 -0.819778 -0.0198488
                  CHANNELS 3 Zrotation Xrotation Yrotation
                  End Site
                  {
                    OFFSET 2.33842 -0.294052 0.168128
                  }
                }
              }
              JOINT lPinky1
              {
                OFFSET 8.27202 -0.0477905 -0.4584
                CHANNELS 3 Zrotation Xrotation Yrotation
                JOINT lPinky2
                {
                  OFFSET 1.82734 -0.647385 -0.700984
                  CHANNELS 3 Zrotation Xrotation Yrotation
                  End Site
                  {
                    OFFSET 1.69225 -0.51767 -0.607171
                  }
                }
              }
            }
          }
        }
      }
    }
  }
  JOINT rButtock
  {
    OFFSET -8.77824 4.35084 1.2192
    CHANNELS 3 Zrotation Xrotation Yrotation
    JOINT rThigh
    {
      OFFSET 0 -1.70687 -2.19456
      CHANNELS 3 Zrotation Xrotation Yrotation
      JOINT rShin
      {
        OFFSET 0 -36.8199 0.73152
        CHANNELS 3 Zrotation Xrotation Yrotation
        JOINT rFoot
        {
          OFFSET 0.73152 -45.1104 -5.12064
          CHANNELS 3 Zrotation Xrotation Yrotation
          End Site
          {
            OFFSET -1.1221 -3.69964 12.103
          }
        }
      }
    }
  }
  JOINT lButtock
  {
    OFFSET 8.77824 4.35084 1.2192
    CHANNELS 3 Zrotation Xrotation Yrotation
    JOINT lThigh
    {
      OFFSET 0 -1.70687 -2.19456
      CHANNELS 3 Zrotation Xrotation Yrotation
      JOINT lShin
      {
        OFFSET 0 -36.8199 0.73152
        CHANNELS 3 Zrotation Xrotation Yrotation
        JOINT lFoot
        {
          OFFSET -0.73152 -45.1104 -5.12064
          CHANNELS 3 Zrotation Xrotation Yrotation
          End Site
          {
            OFFSET 1.1221 -3.69964 12.103
          }
        }
      }
    }
  }
}
MOTION
Frames:	4
Frame Time:	0.00833333
175.049 8.74144 6.51592 -17.2633 -2.78648 94.2264 -3.72374 -0.625853 1.22627 4.63772 -1.23139 0.645256 -1.947 18.5419 1.35512 8.41965 -45.9436 6.02216 -0 0 0 -0 0 0 -2.34064e-013 -2.81281e-013 1.59764e-013 84.7768 -13.9045 -30.6966 9.89141 -4.07557 -17.5981 -0.461318 18.9536 2.76624 1.86638e-009 -1.54275e-009 -2.00441e-009 3.19038e-009 -2.65856e-009 -3.49323e-009 1.86639e-009 -1.54274e-009 -2.00442e-009 7.73091 5.47488 0.417314 1.86638e-009 -1.54275e-009 -2.00442e-009 2.90554 0.965183 0.102902 1.86639e-009 -1.54275e-009 -2.00441e-009 10.2786 0.731801 0.0259123 1.86639e-009 -1.54275e-009 -2.0044e-009 2.22167 -0.733487 -0.20892 -2.3409e-013 -2.81287e-013 1.59447e-013 7.4378 -60.5179 101.468 5.88947 -1.99554 -10.2871 148.952 69.2524 -158.29 -2.80032e-009 8.66725e-010 1.46319e-009 -4.59874e-009 1.68878e-009 2.7134e-009 -2.80033e-009 8.66729e-010 1.4632e-009 -7.73091 5.47488 -0.417314 -2.80032e-009 8.66726e-010 1.4632e-009 -2.90554 0.965183 -0.102902 -2.80033e-009 8.66726e-010 1.4632e-009 -10.2786 0.731801 -0.0259123 -2.80032e-009 8.66726e-010 1.46319e-009 -2.22167 -0.733487 0.20892 -2.03217e-016 0 -3.88251e-019 -2.34987 -72.1108 9.46702 -0.885131 54.0273 0.258765 1.00389 -1.77627 -17.1798 2.03217e-016 0 3.88251e-019 0.664312 -18.7243 -0.770007 0.268571 46.5472 -2.2746 4.79287 -30.1996 30.5124 
175.842 9.33382 6.58779 -17.1399 -2.86984 94.4266 -3.81301 -0.52412 1.28387 4.48039 -1.3883 0.629516 -1.9751 18.7868 1.39089 8.74657 -46.589 6.26825 -0 0 0 -0 0 0 -2.38984e-013 7.47339e-013 1.43715e-013 84.8337 -13.4022 -30.7505 9.98263 -4.13063 -17.7691 -0.431833 18.3587 2.67311 2.46357e-009 -1.38766e-009 1.23705e-009 4.26987e-009 -2.38306e-009 2.09879e-009 2.46357e-009 -1.38765e-009 1.23704e-009 7.73091 5.47488 0.417314 2.46357e-009 -1.38766e-009 1.23704e-009 2.90554 0.965183 0.102902 2.46358e-009 -1.38766e-009 1.23705e-009 10.2786 0.731801 0.0259123 2.46357e-009 -1.38766e-009 1.23705e-009 2.22167 -0.733487 -0.20892 -2.39009e-013 7.47337e-013 1.43473e-013 18.7712 -58.0937 112.008 6.08144 -2.08059 -10.6309 153.165 64.5719 -162.875 -6.39988e-010 5.98026e-010 1.58305e-009 -9.41306e-010 1.11713e-009 2.7224e-009 -6.39995e-010 5.9803e-010 1.58306e-009 -7.73091 5.47488 -0.417314 -6.39986e-010 5.98028e-010 1.58306e-009 -2.90554 0.965183 -0.102902 -6.39991e-010 5.98028e-010 1.58306e-009 -10.2786 0.731801 -0.0259123 -6.39987e-010 5.98028e-010 1.58305e-009 -2.22167 -0.733487 0.20892 -2.03217e-016 0 -3.88251e-019 -3.1904 -71.0428 7.98203 -0.964784 56.5641 0.624644 0.66105 -3.65081 -16.9542 2.03217e-016 0 3.88251e-019 0.527624 -19.5648 -0.75433 0.272209 46.3328 -2.22062 4.6803 -29.4645 30.1427 
176.62 9.82252 6.55456 -17.0524 -2.92007 94.6573 -3.86649 -0.482035 1.38264 4.3593 -1.52051 0.631869 -2.02297 18.9999 1.41564 9.03724 -47.1685 6.47414 -0 0 0 -0 0 0 -2.33758e-013 1.64159e-012 1.1614e-013 84.8714 -12.8627 -30.7531 10.0835 -4.19226 -17.9581 -0.404159 17.781 2.58328 2.71653e-009 -1.06932e-009 3.23603e-009 4.73628e-009 -1.82845e-009 5.5491e-009 2.71654e-009 -1.06932e-009 3.23602e-009 7.73091 5.47488 0.417314 2.71653e-009 -1.06932e-009 3.23602e-009 2.90554 0.965183 0.102902 2.71654e-009 -1.06932e-009 3.23603e-009 10.2786 0.731801 0.0259123 2.71653e-009 -1.06932e-009 3.23603e-009 2.22167 -0.733487 -0.20892 -2.33799e-013 1.64159e-012 1.15941e-013 26.9034 -55.1978 119.396 6.25662 -2.15929 -10.9454 155.528 60.6054 -165.554 7.75238e-010 3.76236e-010 1.53169e-009 1.4426e-009 6.58063e-010 2.50904e-009 7.7523e-010 3.76239e-010 1.5317e-009 -7.73091 5.47488 -0.417314 7.75239e-010 3.76238e-010 1.5317e-009 -2.90554 0.965183 -0.102902 7.75235e-010 3.76237e-010 1.5317e-009 -10.2786 0.731801 -0.0259123 7.75239e-010 3.76237e-010 1.53169e-009 -2.22167 -0.733487 0.20892 -2.03217e-016 0 -3.88251e-019 -3.82138 -69.7898 6.7241 -1.07049 58.9509 0.982931 0.358824 -5.48413 -16.8462 2.03217e-016 0 3.88251e-019 0.45544 -20.4013 -0.725384 0.273304 46.1107 -2.18222 4.5823 -28.7289 29.8028 
177.434 10.3745 6.59709 -17.0245 -2.91205 94.9247 -3.87037 -0.524193 1.5311 4.29324 -1.62004 0.655099 -2.10727 19.177 1.42775 9.28343 -47.6762 6.63079 -0 0 0 -0 0 0 -2.13303e-013 2.46272e-012 6.5642e-014 84.8734 -12.2758 -30.7079 10.1901 -4.25774 -18.1585 -0.379362 17.2469 2.50068 2.43172e-009 -4.07949e-010 3.33268e-009 4.24568e-009 -6.85332e-010 5.72013e-009 2.43172e-009 -4.07947e-010 3.33267e-009 7.73091 5.47488 0.417314 2.43172e-009 -4.07949e-010 3.33268e-009 2.90554 0.965183 0.102902 2.43172e-009 -4.07949e-010 3.33268e-009 10.2786 0.731801 0.0259123 2.43172e-009 -4.07946e-010 3.33268e-009 2.22167 -0.733487 -0.20892 -2.13396e-013 2.46272e-012 6.54347e-014 32.4439 -52.4192 124.28 6.42161 -2.23521 -11.2412 156.933 57.5032 -167.201 1.08149e-009 2.04504e-010 1.19313e-009 1.92955e-009 3.27742e-010 1.90997e-009 1.08148e-009 2.04504e-010 1.19314e-009 -7.73091 5.47488 -0.417314 1.08149e-009 2.04505e-010 1.19313e-009 -2.90554 0.965183 -0.102902 1.08148e-009 2.04505e-010 1.19313e-009 -10.2786 0.731801 -0.0259123 1.08149e-009 2.04505e-010 1.19312e-009 -2.22167 -0.733487 0.20892 -2.03217e-016 0 -3.88251e-019 -4.28497 -68.3875 5.67635 -1.17676 61.1881 1.32276 0.0947318 -7.27961 -16.9694 2.03217e-016 0 3.88251e-019 0.465909 -21.2843 -0.691875 0.271308 45.9031 -2.16115 4.49777 -27.9979 29.4771 
